<svg xmlns="http://www.w3.org/2000/svg" xmlns:xlink="http://www.w3.org/1999/xlink" viewBox="0 0 580.63 211.23"><defs><style>.cls-1{fill:url(#linear-gradient);}.cls-2{fill:url(#linear-gradient-2);}.cls-3{fill:url(#linear-gradient-3);}.cls-4{fill:url(#linear-gradient-4);}.cls-5{fill:url(#linear-gradient-5);}.cls-6{fill:url(#linear-gradient-6);}</style><linearGradient id="linear-gradient" x1="-20.97" y1="48.53" x2="198.09" y2="215.51" gradientUnits="userSpaceOnUse"><stop offset="0" stop-color="#d26c6a"/><stop offset="1" stop-color="#600f18"/></linearGradient><linearGradient id="linear-gradient-2" x1="401.16" y1="316.52" x2="88.65" y2="39.24" xlink:href="#linear-gradient"/><linearGradient id="linear-gradient-3" x1="439.41" y1="273.41" x2="126.9" y2="-3.87" xlink:href="#linear-gradient"/><linearGradient id="linear-gradient-4" x1="498.87" y1="206.39" x2="186.36" y2="-70.89" xlink:href="#linear-gradient"/><linearGradient id="linear-gradient-5" x1="527.24" y1="174.41" x2="214.73" y2="-102.87" xlink:href="#linear-gradient"/><linearGradient id="linear-gradient-6" x1="0.84" y1="29.39" x2="621.26" y2="46.24" xlink:href="#linear-gradient"/></defs><g id="Layer_2" data-name="Layer 2"><g id="Layer_1-2" data-name="Layer 1"><path class="cls-1" d="M159,73.37h0A15.73,15.73,0,0,0,145,92.6a59.56,59.56,0,0,1,1.72,13.52c0,47.2-12.18,86.57-57.11,94.61L73.21,153.56a15.52,15.52,0,0,0-14.36-10.4l-32.94-.63-.89,0L6.79,92.56A3.5,3.5,0,1,0,.21,95L18.88,146.1v50.35q2.79,1.67,5.66,3.15A105.19,105.19,0,0,0,175.83,86,15.71,15.71,0,0,0,159,73.37ZM72.65,202.23a95.52,95.52,0,0,1-46.77-12.12V149.52l28,.53A15.52,15.52,0,0,1,68.2,160.46l14.36,41.26A95.43,95.43,0,0,1,72.65,202.23Z"/><path class="cls-2" d="M202.47,73.73a7,7,0,0,0-7,7V199.7a7,7,0,0,0,14.06,0V80.76A7,7,0,0,0,202.47,73.73Z"/><path class="cls-3" d="M322.83,144.31a81.37,81.37,0,0,0-16-6.36q-8.64-2.47-17.38-4.56a149.7,149.7,0,0,1-16.06-4.75,30,30,0,0,1-11.78-7.41q-4.45-4.76-4.46-12.54a21.21,21.21,0,0,1,3.7-12.26q3.71-5.42,11.5-8.64t19.76-3.23a69,69,0,0,1,18.52,2.66A62.06,62.06,0,0,1,323,92.12a6.07,6.07,0,0,0,5.9-10.62,68.57,68.57,0,0,0-14.35-5.78,80.91,80.91,0,0,0-22.23-3.13q-16.92,0-27.74,5t-16.06,13.3a33.32,33.32,0,0,0-5.22,18.15q0,10.64,4.46,17.19a33.27,33.27,0,0,0,11.78,10.55,73.68,73.68,0,0,0,16.06,6.36q8.73,2.39,17.48,4.47a130.3,130.3,0,0,1,16,4.84A30.82,30.82,0,0,1,320.74,160q4.47,4.74,4.47,12.54a20.18,20.18,0,0,1-3.71,11.78q-3.71,5.31-11.59,8.45t-20.42,3.14a67.75,67.75,0,0,1-25-4.66A64.27,64.27,0,0,1,251,184.18a6.05,6.05,0,0,0-7.11,9.79,60.49,60.49,0,0,0,17.2,9.05,84,84,0,0,0,28.41,4.85q17.1,0,28-5t16.25-13.3a32.57,32.57,0,0,0,5.32-17.95q0-10.46-4.47-16.91A32.7,32.7,0,0,0,322.83,144.31Z"/><path class="cls-4" d="M454.41,79.81a6.08,6.08,0,0,0-6.08-6.08H353a6.08,6.08,0,1,0,0,12.16h40.66V199.7a7,7,0,0,0,14.06,0V85.89h40.66A6.09,6.09,0,0,0,454.41,79.81Z"/><path class="cls-5" d="M580,197.21,526.45,80a10.8,10.8,0,0,0-19.64,0l-53.62,117.3a6.64,6.64,0,1,0,12.09,5.47l14.15-31.6h74.22l14.12,31.55A6.72,6.72,0,1,0,580,197.21ZM484.53,159.8l32-71.53,32,71.53Z"/><path class="cls-6" d="M62.8,61.44h1v-6c0-8.77-6.83-16.65-15.7-18.31V14.19A95.32,95.32,0,0,1,156.43,61a5.57,5.57,0,0,0,3.81,2.81l.1,0a5,5,0,0,0,1,.1H574.42a5.17,5.17,0,0,0,5.14-5.67,5.31,5.31,0,0,0-5.36-4.66H166.54a2.9,2.9,0,0,1-2.48-1.42A106.24,106.24,0,0,0,44.72,3.72c-1.17.31-2.07.57-2.92.84l-.7.21V37.13c-8.87,1.66-15.71,9.54-15.71,18.31v6H62.8ZM44.6,43.8c6.15,0,11.58,4.87,12.15,10.64H32.44C33,48.67,38.45,43.8,44.6,43.8Z"/></g></g></svg>